<svg
  xmlns="http://www.w3.org/2000/svg"
  xmlns:xlink="http://www.w3.org/1999/xlink"
  version="1.1"
  x="0px"
  y="0px"
  viewBox="281.858 350.927 86.229 125"
  enable-background="new 281.858 350.927 86.229 100"
  xml:space="preserve"
>
  <circle cx="296.628" cy="369.056" r="2.789"/>
  <path d="M329.051,367.836h-18.826c-0.867,0-1.569-0.702-1.569-1.569s0.702-1.569,1.569-1.569h18.826  c0.867,0,1.569,0.702,1.569,1.569S329.918,367.836,329.051,367.836z"/>
  <path d="M328.18,372.368h-16.038c-0.289,0-0.523-0.234-0.523-0.523s0.234-0.523,0.523-0.523h16.037c0.289,0,0.523,0.234,0.523,0.523  S328.468,372.368,328.18,372.368z"/>
  <path d="M323.647,375.506h-11.505c-0.289,0-0.523-0.234-0.523-0.523s0.234-0.523,0.523-0.523h11.505  c0.289,0,0.523,0.234,0.523,0.523S323.937,375.506,323.647,375.506z"/>
  <path d="M326.785,378.644h-14.643c-0.289,0-0.523-0.234-0.523-0.523s0.234-0.523,0.523-0.523h14.643  c0.289,0,0.523,0.234,0.523,0.523S327.074,378.644,326.785,378.644z"/>
  <path d="M317.371,381.781h-5.23c-0.289,0-0.523-0.234-0.523-0.523s0.234-0.523,0.523-0.523h5.23c0.289,0,0.523,0.234,0.523,0.523  S317.661,381.781,317.371,381.781z"/>
  <path d="M330.795,381.781h-11.331c-0.289,0-0.523-0.234-0.523-0.523s0.234-0.523,0.523-0.523h11.33c0.289,0,0.523,0.234,0.523,0.523  S331.083,381.781,330.795,381.781z"/>
  <path d="M306.389,389.103H293.49c-0.577,0-1.046-0.469-1.046-1.046s0.469-1.046,1.046-1.046h12.899c0.577,0,1.046,0.469,1.046,1.046  S306.968,389.103,306.389,389.103z"/>
  <path d="M300.812,393.461h-6.275c-0.289,0-0.523-0.234-0.523-0.523s0.234-0.523,0.523-0.523h6.275c0.289,0,0.523,0.234,0.523,0.523  S301.1,393.461,300.812,393.461z"/>
  <path d="M300.812,396.599h-6.275c-0.289,0-0.523-0.234-0.523-0.523c0-0.289,0.234-0.523,0.523-0.523h6.275  c0.289,0,0.523,0.234,0.523,0.523C301.335,396.364,301.1,396.599,300.812,396.599z"/>
  <path d="M300.812,399.736h-6.275c-0.289,0-0.523-0.234-0.523-0.523s0.234-0.523,0.523-0.523h6.275c0.289,0,0.523,0.234,0.523,0.523  S301.1,399.736,300.812,399.736z"/>
  <path d="M300.812,402.874h-6.275c-0.289,0-0.523-0.234-0.523-0.523c0-0.289,0.234-0.523,0.523-0.523h6.275  c0.289,0,0.523,0.234,0.523,0.523C301.335,402.64,301.1,402.874,300.812,402.874z"/>
  <path d="M335.501,393.461h-31.552c-0.289,0-0.523-0.234-0.523-0.523s0.234-0.523,0.523-0.523h31.552  c0.289,0,0.523,0.234,0.523,0.523S335.79,393.461,335.501,393.461z"/>
  <path d="M335.501,396.599h-31.552c-0.289,0-0.523-0.234-0.523-0.523c0-0.289,0.234-0.523,0.523-0.523h31.552  c0.289,0,0.523,0.234,0.523,0.523C336.024,396.364,335.79,396.599,335.501,396.599z"/>
  <path d="M335.501,399.736h-31.552c-0.289,0-0.523-0.234-0.523-0.523s0.234-0.523,0.523-0.523h31.552  c0.289,0,0.523,0.234,0.523,0.523S335.79,399.736,335.501,399.736z"/>
  <path d="M335.501,402.874h-31.552c-0.289,0-0.523-0.234-0.523-0.523c0-0.289,0.234-0.523,0.523-0.523h31.552  c0.289,0,0.523,0.234,0.523,0.523C336.024,402.64,335.79,402.874,335.501,402.874z"/>
  <path d="M306.389,408.975H293.49c-0.577,0-1.046-0.469-1.046-1.046s0.469-1.046,1.046-1.046h12.899c0.577,0,1.046,0.469,1.046,1.046  S306.968,408.975,306.389,408.975z"/>
  <path d="M335.501,413.333h-17.432c-0.289,0-0.523-0.234-0.523-0.523s0.234-0.523,0.523-0.523h17.432  c0.289,0,0.523,0.234,0.523,0.523S335.79,413.333,335.501,413.333z"/>
  <path d="M335.501,416.471h-17.432c-0.289,0-0.523-0.234-0.523-0.523s0.234-0.523,0.523-0.523h17.432  c0.289,0,0.523,0.234,0.523,0.523S335.79,416.471,335.501,416.471z"/>
  <path d="M335.501,419.609h-17.432c-0.289,0-0.523-0.234-0.523-0.523s0.234-0.523,0.523-0.523h17.432  c0.289,0,0.523,0.234,0.523,0.523S335.79,419.609,335.501,419.609z"/>
  <path d="M335.501,422.746h-17.432c-0.289,0-0.523-0.234-0.523-0.523s0.234-0.523,0.523-0.523h17.432  c0.289,0,0.523,0.234,0.523,0.523S335.79,422.746,335.501,422.746z"/>
  <path d="M306.389,427.801H293.49c-0.577,0-1.046-0.469-1.046-1.046s0.469-1.046,1.046-1.046h12.899c0.577,0,1.046,0.469,1.046,1.046  S306.968,427.801,306.389,427.801z"/>
  <path d="M335.501,432.159h-40.965c-0.289,0-0.523-0.234-0.523-0.523s0.234-0.523,0.523-0.523h40.965  c0.289,0,0.523,0.234,0.523,0.523S335.79,432.159,335.501,432.159z"/>
  <path d="M335.501,435.297h-40.965c-0.289,0-0.523-0.234-0.523-0.523s0.234-0.523,0.523-0.523h40.965  c0.289,0,0.523,0.234,0.523,0.523S335.79,435.297,335.501,435.297z"/>
  <path d="M311.968,413.333h-17.432c-0.289,0-0.523-0.234-0.523-0.523s0.234-0.523,0.523-0.523h17.432  c0.289,0,0.523,0.234,0.523,0.523S312.257,413.333,311.968,413.333z"/>
  <path d="M311.968,416.471h-17.432c-0.289,0-0.523-0.234-0.523-0.523s0.234-0.523,0.523-0.523h17.432  c0.289,0,0.523,0.234,0.523,0.523S312.257,416.471,311.968,416.471z"/>
  <path d="M311.968,419.609h-17.432c-0.289,0-0.523-0.234-0.523-0.523s0.234-0.523,0.523-0.523h17.432  c0.289,0,0.523,0.234,0.523,0.523S312.257,419.609,311.968,419.609z"/>
  <path d="M311.968,422.746h-17.432c-0.289,0-0.523-0.234-0.523-0.523s0.234-0.523,0.523-0.523h17.432  c0.289,0,0.523,0.234,0.523,0.523S312.257,422.746,311.968,422.746z"/>
  <path d="M290.701,363.13v15.863h11.853V363.13H290.701z M301.509,377.946h-1.743v-2.44c0-1.733-1.405-3.138-3.138-3.138  s-3.138,1.405-3.138,3.138v2.44h-1.744v-13.77h9.761v13.77H301.509z"/>
  <path d="M357.677,365.287l0.282-2.51l-14.615-1.66v-2.346h-20.523l-15.243-2.845l-0.209,1.109l-6.223-0.711l-0.278,2.447h-14.699  v80.883h29.149l33.605,6.272l14.852-79.499L357.677,365.287z M288.261,437.563v-76.699h52.993v76.699H288.261z M347.25,443.49  l-7.196-1.339l7.29,0.826L347.25,443.49z M346.999,440.833l-10.371-1.179h6.717v-14.316c0.099-0.083,0.17-0.202,0.186-0.341  c0.02-0.179-0.059-0.34-0.186-0.449v-2.211c0.271,0.01,0.508-0.184,0.54-0.457c0.032-0.288-0.174-0.546-0.46-0.578l-0.079-0.009  v-2.105l0.315,0.036c0.288,0.032,0.546-0.174,0.578-0.46c0.032-0.288-0.174-0.546-0.46-0.578l-0.433-0.049v-2.105l0.668,0.076  c0.288,0.032,0.546-0.174,0.578-0.46c0.032-0.288-0.174-0.546-0.46-0.578l-0.786-0.089v-9.476l1.848,0.21  c0.288,0.032,0.546-0.174,0.578-0.46c0.032-0.288-0.174-0.546-0.46-0.578l-1.966-0.223v-2.105l2.202,0.25  c0.288,0.032,0.546-0.174,0.578-0.46c0.032-0.288-0.174-0.546-0.46-0.578l-2.32-0.264v-2.105l2.556,0.29  c0.288,0.032,0.546-0.174,0.578-0.46c0.032-0.288-0.174-0.546-0.46-0.578l-2.673-0.303v-2.105l2.91,0.331  c0.288,0.032,0.546-0.174,0.578-0.46c0.032-0.288-0.174-0.546-0.46-0.578l-3.028-0.343v-10.942c0.065-0.076,0.116-0.166,0.129-0.274  c0.017-0.152-0.036-0.294-0.129-0.401V370.12c0.592-0.169,1.052-0.681,1.126-1.33c0.088-0.773-0.403-1.473-1.126-1.681v-3.886  l12.303,1.395L346.999,440.833z M357.447,367.369h-0.01l0.094-0.774L357.447,367.369l3.891,0.732l-10.135,54.23L357.447,367.369z"/>
</svg>