<?xml version="1.0" encoding="UTF-8" standalone="no"?>
<!-- Generator: Adobe Illustrator 16.2.0, SVG Export Plug-In . SVG Version: 6.00 Build 0)  -->

<svg
   xmlns:dc="http://purl.org/dc/elements/1.1/"
   xmlns:cc="http://creativecommons.org/ns#"
   xmlns:rdf="http://www.w3.org/1999/02/22-rdf-syntax-ns#"
   xmlns:svg="http://www.w3.org/2000/svg"
   xmlns="http://www.w3.org/2000/svg"
   xmlns:sodipodi="http://sodipodi.sourceforge.net/DTD/sodipodi-0.dtd"
   xmlns:inkscape="http://www.inkscape.org/namespaces/inkscape"
   version="1.1"
   id="レイヤー_1"
   x="0px"
   y="0px"
   width="170.079px"
   height="170.079px"
   viewBox="0 0 170.079 170.079"
   enable-background="new 0 0 170.079 170.079"
   xml:space="preserve"
   inkscape:version="0.91 r13725"
   sodipodi:docname="jt_logo.svg"><metadata
     id="metadata41"><rdf:RDF><cc:Work
         rdf:about=""><dc:format>image/svg+xml</dc:format><dc:type
           rdf:resource="http://purl.org/dc/dcmitype/StillImage" /></cc:Work></rdf:RDF></metadata><defs
     id="defs39" /><sodipodi:namedview
     pagecolor="#ffffff"
     bordercolor="#666666"
     borderopacity="1"
     objecttolerance="10"
     gridtolerance="10"
     guidetolerance="10"
     inkscape:pageopacity="0"
     inkscape:pageshadow="2"
     inkscape:window-width="1920"
     inkscape:window-height="1030"
     id="namedview37"
     showgrid="false"
     inkscape:zoom="1.3875905"
     inkscape:cx="-3.2430317"
     inkscape:cy="83.59815"
     inkscape:window-x="0"
     inkscape:window-y="0"
     inkscape:window-maximized="1"
     inkscape:current-layer="レイヤー_1" /><g
     id="g3"
     style="fill:#ffe680"><path
       fill="#F0862B"
       d="M401.131,88.924c0,7.795-6.377,14.172-14.172,14.172H245.225c-7.795,0-14.172-6.377-14.172-14.172V-52.811   c0-7.795,6.377-14.173,14.172-14.173h141.734c7.795,0,14.172,6.378,14.172,14.173V88.924L401.131,88.924z"
       id="path5"
       style="fill:#ffe680" /></g><g
     id="g7"
     style="fill:#AE944F"><path
       fill="#F0862B"
       d="M170.079,150.236c0,10.914-8.929,19.843-19.843,19.843H19.842C8.929,170.079,0,161.15,0,150.236V19.842   C0,8.929,8.929,0,19.842,0h130.394c10.914,0,19.843,8.929,19.843,19.842V150.236z"
       id="path9"
       style="fill:#AE944F" /></g><rect
     x="39.189"
     y="-164.053"
     fill="#FFFFFF"
     width="140.184"
     height="140.183"
     id="rect11" /><rect
     x="18.592"
     y="18.591"
     fill="#FFFFFF"
     width="132.895"
     height="132.896"
     id="rect13" /><g
     id="g15"><g
       id="g17"><g
         id="g19"><path
           d="M46.758,118.724c-1.646,0-3.301-0.083-4.923-0.247c-1.633-0.163-3.254-0.413-4.815-0.742l-0.57-0.119v-10.152     l0.942,0.311c1.139,0.379,2.255,0.665,3.317,0.855c1.057,0.187,2.184,0.281,3.348,0.281c4.089,0,6.944-1.231,8.728-3.767     c1.816-2.574,2.735-6.968,2.735-13.062V47.455h12.514v46.722c0,8.325-1.727,14.557-5.134,18.523     C59.468,116.699,54.036,118.724,46.758,118.724z"
           id="path21" /></g><g
         id="g23"><polygon
           points="99.232,118.14 99.232,56.978 77.295,56.978 77.295,47.455 133.627,47.455 133.627,56.978 111.69,56.978      111.69,118.14    "
           id="polygon25" /></g></g></g><g
     id="g27"><path
       fill="#FFFFFF"
       d="M-91.444,143.123c15.676,0,28.438-12.764,28.438-28.465V38.799c0-15.7-12.762-28.464-28.438-28.464h-75.881   c-15.677,0-28.417,12.764-28.417,28.464v75.859c0,15.701,12.739,28.465,28.417,28.465H-91.444L-91.444,143.123z"
       id="path29" /><path
       fill="#006CBA"
       d="M-167.303-8.664c-26.12,0-47.413,21.306-47.413,47.425v75.924c0,26.143,21.293,47.412,47.413,47.412h75.933   c26.145,0,47.438-21.271,47.438-47.412V38.761c0-26.119-21.292-47.425-47.438-47.425L-167.303-8.664L-167.303-8.664z    M-195.751,114.685V38.761c0-15.667,12.757-28.448,28.448-28.448h75.933c15.691,0,28.424,12.781,28.424,28.448v75.924   c0,15.666-12.733,28.471-28.424,28.471h-75.933C-182.994,143.156-195.751,130.351-195.751,114.685"
       id="path31" /><polygon
       points="-162.429,53.992 -181.442,53.992 -181.442,43.538 -130.076,43.538 -130.076,53.992 -149.114,53.992    -149.114,109.931 -162.429,109.931  "
       id="polygon33" /><path
       d="M-85.961,55.701c-4.171-1.807-8.828-2.874-13.485-2.874c-4.561,0-10.477,2.012-10.477,9.264   c0,11.507,29.126,6.657,29.126,28.898c0,14.574-11.519,20.104-24.932,20.104c-7.227,0-10.477-0.969-17.023-2.594l1.212-11.957   c4.56,2.477,9.823,4.074,15.06,4.074c5.045,0,11.738-2.568,11.738-8.584c0-12.635-29.078-7.398-29.078-29.371   c0-14.855,11.52-20.263,23.258-20.263c5.675,0,10.962,0.739,15.886,2.376L-85.961,55.701z"
       id="path35" /></g></svg>