<?xml version="1.0" encoding="UTF-8"?>
<svg xmlns="http://www.w3.org/2000/svg" xmlns:xlink="http://www.w3.org/1999/xlink" width="546pt" height="500pt" viewBox="0 0 546 500" version="1.1">
<g id="surface1">
<path style=" stroke:none;fill-rule:evenodd;fill:rgb(0%,65.098572%,31.399536%);fill-opacity:1;" d="M 3.585938 31.597656 L 3.738281 272.863281 L 264.042969 272.863281 L 264.042969 168.859375 C 237.945313 167.929688 58.238281 94.699219 3.585938 31.597656 Z M 282.535156 272.863281 L 545.664063 272.863281 L 545.664063 42.167969 C 526.007813 57.882813 504.820313 72.667969 485.109375 86.417969 C 479.289063 90.480469 473.613281 94.4375 466.390625 99.5625 L 466.386719 99.566406 C 404.464844 143.503906 343.695313 166.773438 282.535156 168.871094 L 282.535156 272.863281 "/>
<path style=" stroke:none;fill-rule:nonzero;fill:rgb(17.999268%,18.798828%,57.299805%);fill-opacity:1;" d="M 70.320313 345.914063 L 100.820313 345.914063 L 100.820313 427.535156 C 100.820313 440.511719 101.207031 448.890625 101.941406 452.710938 C 103.242188 458.882813 106.289063 463.859375 111.128906 467.578125 C 116.003906 471.328125 122.628906 473.1875 131.042969 473.1875 C 139.5625 473.1875 146.015625 471.433594 150.363281 467.894531 C 154.710938 464.351563 157.304688 460.039063 158.183594 454.886719 C 159.058594 449.730469 159.515625 441.210938 159.515625 429.289063 L 159.515625 345.914063 L 190.015625 345.914063 L 190.015625 425.117188 C 190.015625 443.210938 189.210938 456.007813 187.5625 463.476563 C 185.914063 470.941406 182.898438 477.253906 178.480469 482.40625 C 174.097656 487.5625 168.210938 491.628906 160.847656 494.679688 C 153.449219 497.730469 143.839844 499.273438 131.957031 499.273438 C 117.617188 499.273438 106.746094 497.625 99.347656 494.292969 C 91.949219 490.960938 86.097656 486.652344 81.78125 481.320313 C 77.46875 475.992188 74.664063 470.453125 73.296875 464.597656 C 71.300781 455.972656 70.320313 443.210938 70.320313 426.34375 Z M 321.320313 496.539063 L 292.5 496.539063 L 292.5 440.894531 C 292.5 429.113281 291.871094 421.507813 290.640625 418.070313 C 289.378906 414.601563 287.382813 411.933594 284.578125 410.007813 C 281.773438 408.078125 278.40625 407.132813 274.480469 407.132813 C 269.429688 407.132813 264.90625 408.5 260.910156 411.234375 C 256.878906 413.96875 254.144531 417.613281 252.671875 422.101563 C 251.164063 426.625 250.425781 434.96875 250.425781 447.171875 L 250.425781 496.539063 L 221.605469 496.539063 L 221.605469 387.355469 L 248.324219 387.355469 L 248.324219 403.378906 C 257.894531 391.144531 269.921875 385.042969 284.472656 385.042969 C 290.851563 385.042969 296.707031 386.199219 302.003906 388.480469 C 307.332031 390.792969 311.328125 393.703125 314.027344 397.246094 C 316.761719 400.820313 318.65625 404.851563 319.707031 409.375 C 320.796875 413.898438 321.320313 420.347656 321.320313 428.765625 Z M 350.738281 345.914063 L 410.972656 345.914063 C 422.929688 345.914063 431.796875 346.40625 437.652344 347.386719 C 443.542969 348.40625 448.769531 350.472656 453.394531 353.59375 C 458.023438 356.75 461.882813 360.921875 464.964844 366.144531 C 468.050781 371.371094 469.59375 377.261719 469.59375 383.746094 C 469.59375 390.757813 467.699219 397.246094 463.914063 403.097656 C 460.128906 408.988281 454.972656 413.371094 448.488281 416.316406 C 457.636719 419.019531 464.652344 423.574219 469.59375 430.027344 C 474.503906 436.476563 476.957031 444.050781 476.957031 452.78125 C 476.957031 459.652344 475.378906 466.316406 472.1875 472.800781 C 468.996094 479.289063 464.652344 484.476563 459.109375 488.367188 C 453.605469 492.226563 446.804688 494.609375 438.703125 495.519531 C 433.65625 496.046875 421.421875 496.398438 402.03125 496.539063 L 350.738281 496.539063 Z M 381.238281 370.949219 L 381.238281 405.660156 L 401.15625 405.660156 C 412.972656 405.660156 420.332031 405.484375 423.210938 405.132813 C 428.398438 404.535156 432.5 402.75 435.480469 399.769531 C 438.460938 396.789063 439.933594 392.898438 439.933594 388.058594 C 439.933594 383.394531 438.636719 379.644531 436.074219 376.734375 C 433.515625 373.824219 429.695313 372.070313 424.644531 371.476563 C 421.632813 371.125 412.972656 370.949219 398.699219 370.949219 Z M 381.238281 430.691406 L 381.238281 471.082031 L 409.429688 471.082031 C 420.367188 471.082031 427.347656 470.769531 430.289063 470.171875 C 434.8125 469.332031 438.496094 467.332031 441.335938 464.140625 C 444.175781 460.914063 445.613281 456.671875 445.613281 451.308594 C 445.613281 446.75 444.523438 442.929688 442.316406 439.773438 C 440.144531 436.617188 436.953125 434.304688 432.816406 432.867188 C 428.679688 431.429688 419.667969 430.691406 405.816406 430.691406 L 381.238281 430.691406 "/>
<path style=" stroke:none;fill-rule:evenodd;fill:rgb(17.999268%,18.798828%,57.299805%);fill-opacity:1;" d="M 3.585938 0.203125 L 264.042969 0.203125 L 264.042969 150.425781 C 207.933594 148.253906 151.320313 126.8125 92.859375 85.640625 C 84.699219 79.894531 75.625 74.089844 66.378906 68.171875 C 46.851563 55.679688 26.503906 42.660156 7.96875 25.011719 L 3.96875 21.941406 Z M 282.535156 0.203125 L 543.800781 0.203125 L 545.769531 0.179688 L 545.6875 18.242188 C 544.34375 19.359375 537.609375 24.980469 537.203125 25.3125 L 536.242188 26.089844 L 536.226563 26.101563 L 535.292969 26.855469 L 535.261719 26.878906 L 534.339844 27.621094 L 533.742188 28.097656 L 533.382813 28.382813 L 533.320313 28.433594 L 532.425781 29.144531 C 531.605469 29.792969 530.785156 30.441406 529.960938 31.089844 C 529.5 31.449219 529.039063 31.8125 528.578125 32.171875 L 528 32.621094 L 527.601563 32.929688 L 527.449219 33.050781 L 526.632813 33.683594 L 525.941406 34.214844 L 525.472656 34.578125 L 524.6875 35.183594 L 524.664063 35.199219 L 523.984375 35.722656 L 523.710938 35.933594 L 523.492188 36.097656 L 522.730469 36.679688 L 522.703125 36.703125 L 522.210938 37.078125 L 521.503906 37.613281 L 520.773438 38.167969 L 520.507813 38.367188 L 520.261719 38.554688 L 519.539063 39.097656 L 519.511719 39.121094 L 518.808594 39.648438 L 518.144531 40.144531 L 517.511719 40.621094 L 516.839844 41.125 L 516.8125 41.144531 L 516.082031 41.6875 L 515.855469 41.859375 L 515.507813 42.117188 L 514.867188 42.59375 L 514.507813 42.863281 L 514.34375 42.980469 L 513.503906 43.605469 L 512.890625 44.058594 L 512.496094 44.347656 L 512.253906 44.527344 L 511.492188 45.085938 L 510.910156 45.515625 L 510.484375 45.824219 L 510.308594 45.957031 L 509.480469 46.5625 L 508.929688 46.964844 L 508.871094 47.007813 C 507.984375 47.65625 507.097656 48.300781 506.207031 48.945313 L 505.449219 49.496094 L 504.964844 49.847656 L 504.9375 49.867188 L 504.074219 50.488281 L 503.972656 50.5625 L 503.433594 50.949219 L 502.976563 51.28125 L 502.128906 51.890625 L 501.984375 51.992188 L 501.417969 52.398438 L 500.992188 52.703125 L 500.003906 53.414063 L 499.402344 53.84375 L 499.011719 54.125 L 498.132813 54.753906 L 498.019531 54.832031 L 497.390625 55.28125 L 497.03125 55.535156 L 496.386719 55.996094 L 496.039063 56.242188 L 495.378906 56.710938 L 495.050781 56.941406 C 493.410156 58.105469 491.773438 59.265625 490.144531 60.414063 L 490.117188 60.433594 L 489.367188 60.960938 L 489.132813 61.125 L 488.367188 61.660156 L 488.148438 61.816406 L 487.371094 62.363281 L 487.167969 62.503906 L 486.375 63.0625 L 486.1875 63.191406 L 485.382813 63.757813 L 485.210938 63.878906 L 483.394531 65.148438 L 483.257813 65.246094 L 482.40625 65.84375 L 482.285156 65.929688 L 481.421875 66.53125 L 480.433594 67.222656 L 480.339844 67.285156 L 478.40625 68.636719 L 477.488281 69.277344 L 477.441406 69.308594 L 476.511719 69.960938 L 476.480469 69.980469 L 475.535156 70.640625 L 475.519531 70.652344 L 474.5625 71.320313 C 467.464844 76.273438 460.539063 81.105469 455.699219 84.539063 L 455.695313 84.539063 C 396.976563 126.207031 339.730469 148.332031 282.535156 150.4375 L 282.535156 0.203125 "/>
<path style=" stroke:none;fill-rule:evenodd;fill:rgb(100%,100%,100%);fill-opacity:1;" d="M 466.386719 99.566406 Z M 80.191406 99.566406 Z M 273.289063 0.203125 L 264.042969 0.203125 L 264.042969 150.4375 C 206.851563 148.332031 149.601563 126.207031 90.882813 84.539063 C 86.039063 81.105469 79.117188 76.273438 72.019531 71.320313 L 71.058594 70.652344 L 71.042969 70.640625 L 70.101563 69.980469 L 70.070313 69.960938 L 69.136719 69.308594 L 69.09375 69.277344 L 68.171875 68.636719 L 66.238281 67.285156 L 66.144531 67.222656 L 65.160156 66.53125 L 64.296875 65.929688 L 64.171875 65.84375 L 63.324219 65.246094 L 63.183594 65.148438 L 61.371094 63.878906 L 61.199219 63.757813 L 60.390625 63.191406 L 60.203125 63.0625 L 59.410156 62.503906 L 59.210938 62.363281 L 58.429688 61.816406 L 58.210938 61.660156 L 57.449219 61.125 L 57.214844 60.960938 L 56.464844 60.433594 L 56.4375 60.414063 L 51.53125 56.941406 L 51.199219 56.710938 L 50.539063 56.242188 L 50.195313 55.996094 L 49.550781 55.535156 L 49.1875 55.28125 L 48.449219 54.753906 L 47.570313 54.125 L 47.175781 53.84375 L 46.578125 53.414063 L 45.585938 52.703125 L 45.160156 52.398438 L 44.59375 51.992188 L 44.453125 51.890625 L 43.601563 51.28125 L 43.144531 50.949219 L 42.609375 50.5625 L 42.503906 50.488281 L 41.644531 49.867188 L 41.617188 49.847656 L 41.128906 49.496094 L 40.371094 48.945313 L 37.707031 47.007813 L 37.652344 46.964844 L 37.101563 46.5625 L 36.273438 45.957031 L 36.09375 45.824219 L 35.667969 45.515625 L 35.089844 45.085938 L 34.328125 44.527344 L 34.082031 44.347656 L 33.691406 44.058594 L 33.078125 43.605469 L 32.234375 42.980469 L 32.074219 42.863281 L 31.714844 42.59375 L 31.070313 42.117188 L 30.726563 41.859375 L 30.496094 41.6875 L 29.765625 41.144531 L 29.738281 41.125 L 29.066406 40.621094 L 28.433594 40.144531 L 27.773438 39.648438 L 27.070313 39.121094 L 27.042969 39.097656 L 26.320313 38.554688 L 25.804688 38.167969 L 25.074219 37.613281 L 24.371094 37.078125 L 23.878906 36.703125 L 23.847656 36.679688 L 23.085938 36.097656 L 22.871094 35.933594 L 22.597656 35.722656 L 21.914063 35.199219 L 21.894531 35.183594 L 21.105469 34.578125 L 20.636719 34.214844 L 19.949219 33.683594 L 19.132813 33.050781 L 18.976563 32.929688 L 18.582031 32.621094 L 18.003906 32.171875 L 16.617188 31.089844 L 14.15625 29.144531 L 13.257813 28.433594 L 13.195313 28.382813 L 12.839844 28.097656 L 12.242188 27.621094 L 11.320313 26.878906 L 11.289063 26.855469 L 10.351563 26.101563 L 10.335938 26.089844 L 9.378906 25.3125 L 0.917969 18.261719 L 0.917969 42.167969 C 20.570313 57.882813 41.761719 72.667969 61.472656 86.417969 C 67.292969 90.480469 72.96875 94.4375 80.191406 99.5625 C 142.113281 143.503906 202.886719 166.773438 264.042969 168.871094 L 264.042969 272.863281 L 282.535156 272.863281 L 282.535156 168.871094 C 343.695313 166.773438 404.464844 143.503906 466.390625 99.5625 C 473.613281 94.4375 479.289063 90.480469 485.109375 86.417969 C 504.820313 72.667969 526.007813 57.882813 545.664063 42.167969 L 545.664063 18.261719 L 537.203125 25.3125 L 536.242188 26.089844 L 536.226563 26.101563 L 535.292969 26.855469 L 535.261719 26.878906 L 534.339844 27.621094 L 533.742188 28.097656 L 533.382813 28.382813 L 533.320313 28.433594 L 532.425781 29.144531 L 529.960938 31.089844 L 528.578125 32.171875 L 528 32.621094 L 527.601563 32.929688 L 527.449219 33.050781 L 526.632813 33.683594 L 525.941406 34.214844 L 525.472656 34.578125 L 524.6875 35.183594 L 524.664063 35.199219 L 523.984375 35.722656 L 523.710938 35.933594 L 523.492188 36.097656 L 522.730469 36.679688 L 522.703125 36.703125 L 522.210938 37.078125 L 521.503906 37.613281 L 520.773438 38.167969 L 520.507813 38.367188 L 520.261719 38.554688 L 519.539063 39.097656 L 519.511719 39.121094 L 518.808594 39.648438 L 518.144531 40.144531 L 517.511719 40.621094 L 516.839844 41.125 L 516.8125 41.144531 L 516.082031 41.6875 L 515.855469 41.859375 L 515.507813 42.117188 L 514.867188 42.59375 L 514.507813 42.863281 L 514.34375 42.980469 L 513.503906 43.605469 L 512.890625 44.058594 L 512.496094 44.347656 L 512.253906 44.527344 L 511.492188 45.085938 L 510.910156 45.515625 L 510.484375 45.824219 L 510.308594 45.957031 L 509.480469 46.5625 L 508.929688 46.964844 L 508.871094 47.007813 L 506.207031 48.945313 L 505.449219 49.496094 L 504.964844 49.847656 L 504.9375 49.867188 L 504.074219 50.488281 L 503.972656 50.5625 L 503.433594 50.949219 L 502.976563 51.28125 L 502.128906 51.890625 L 501.984375 51.992188 L 501.417969 52.398438 L 500.992188 52.703125 L 500.003906 53.414063 L 499.402344 53.84375 L 499.011719 54.125 L 498.132813 54.753906 L 498.019531 54.832031 L 497.390625 55.28125 L 497.03125 55.535156 L 496.386719 55.996094 L 496.039063 56.242188 L 495.378906 56.710938 L 495.050781 56.941406 L 490.144531 60.414063 L 490.117188 60.433594 L 489.367188 60.960938 L 489.132813 61.125 L 488.367188 61.660156 L 488.148438 61.816406 L 487.371094 62.363281 L 487.167969 62.503906 L 486.375 63.0625 L 486.1875 63.191406 L 485.382813 63.757813 L 485.210938 63.878906 L 483.394531 65.148438 L 483.257813 65.246094 L 482.40625 65.84375 L 482.285156 65.929688 L 481.421875 66.53125 L 480.433594 67.222656 L 480.339844 67.285156 L 478.40625 68.636719 L 477.488281 69.277344 L 477.441406 69.308594 L 476.511719 69.960938 L 476.480469 69.980469 L 475.535156 70.640625 L 475.519531 70.652344 L 474.5625 71.320313 C 467.464844 76.273438 460.539063 81.105469 455.695313 84.539063 C 396.976563 126.207031 339.730469 148.332031 282.535156 150.4375 L 282.535156 0.203125 Z M 90.882813 84.539063 Z M 455.699219 84.539063 L 455.699219 84.539063 "/>
</g>
</svg>
